<svg xmlns="http://www.w3.org/2000/svg" xmlns:xlink="http://www.w3.org/1999/xlink" width="725" height="725.002" viewBox="0 0 725 725.002">
  <defs>
    <linearGradient id="linear-gradient" y1="0.5" x2="1" y2="0.5" gradientUnits="objectBoundingBox">
      <stop offset="0" stop-color="#f8c417"/>
      <stop offset="1" stop-color="#e61972"/>
    </linearGradient>
    <linearGradient id="linear-gradient-2" x1="0.449" y1="0.142" x2="0.619" y2="0.609" gradientUnits="objectBoundingBox">
      <stop offset="0" stop-opacity="0.247"/>
      <stop offset="1" stop-opacity="0.047"/>
    </linearGradient>
    <linearGradient id="linear-gradient-3" x1="0.209" y1="0" x2="0.877" y2="0.905" xlink:href="#linear-gradient-2"/>
    <linearGradient id="linear-gradient-4" x1="0.329" y1="0.328" x2="0.541" y2="0.711" xlink:href="#linear-gradient-2"/>
  </defs>
  <g id="logo" transform="translate(62 62)">
    <rect id="backround" width="725" height="725" rx="107" transform="translate(-62 -62)" fill="url(#linear-gradient)"/>
    <path id="horizantal-rectangle-shadow" d="M-977.548,202h-211.934l-88.955-154.075.1-.057A14.955,14.955,0,0,0-1265,56h162a15.017,15.017,0,0,0,15-15V15a14.937,14.937,0,0,0-4.123-10.33l.486-.28L-977.548,202h0Z" transform="translate(1606 461)" fill="url(#linear-gradient-2)"/>
    <path id="arrow-shadow-1" d="M-1160.772,260.948h0L-1278.356,57.287l.038-.022a15,15,0,0,0,2.712,3.7L-1118.2,218.372l-42.575,42.576Z" transform="translate(1363.456 81.8)" fill="url(#linear-gradient-3)"/>
    <path id="arrow-shadow-2" d="M-948.225,369.819h-221.9L-1280,179.5l.286-.166a15.113,15.113,0,0,0,3.526,5.57l35.356,35.356a14.9,14.9,0,0,0,10.606,4.393,14.9,14.9,0,0,0,10.607-4.393l193.04-193.04-.079-.078,9.626-9.625a14.944,14.944,0,0,0,2.719-17.5l.025-.014,129.221,223.817h-138.677a14.953,14.953,0,0,1-13.337-8.131l-.1.057,88.955,154.075Z" transform="translate(1364.744 293.183)" fill="url(#linear-gradient-4)"/>
    <path id="arrow" d="M-1432.331,293.856l-35.356-35.356a15,15,0,0,1,0-21.213l156.7-156.7-157.41-157.41a15,15,0,0,1,0-21.213l35.355-35.356a15,15,0,0,1,21.214,0L-1208.532,69.9a15,15,0,0,1,0,21.214l-9.625,9.625.078.078-193.04,193.04a14.951,14.951,0,0,1-10.606,4.394A14.954,14.954,0,0,1-1432.331,293.856Z" transform="translate(1556.243 219.587)" fill="#fff"/>
    <rect id="horizantal-rectangle" width="192" height="56" rx="15" transform="translate(326 461)" fill="#fff"/>
  </g>
</svg>
